# xmcd CD database file
#
# Track frame offsets:
#	150
#	21168
#	55271
#	71299
#	117687
#	147398
#	190678
#	195376
#	207091
#	277547
#
# Disc length: 4281 seconds
#
# Revision: 0
# Processed by: cddbd v1.5.2PL0 Copyright (c) Steve Scherf et al.
# Submitted via: CDex 1.77
#
DISCID=8a10b70a
DTITLE=Joe Maneri, Barre Phillips and Mat Maneri - Angles Of Repose
DYEAR=2004
DGENRE=Jazz
TTITLE0=Number One
TTITLE1=Number Two
TTITLE2=Number Three
TTITLE3=Number Four
TTITLE4=Number Five
TTITLE5=Number Six
TTITLE6=Number Seven
TTITLE7=Number Eight
TTITLE8=Number Nine
TTITLE9=10 - Number Ten
EXTD=YEAR: 2004
EXTT0=
EXTT1=
EXTT2=
EXTT3=
EXTT4=
EXTT5=
EXTT6=
EXTT7=
EXTT8=
EXTT9=
PLAYORDER=
